<?xml version="1.0" standalone="no"?><!DOCTYPE svg PUBLIC "-//W3C//DTD SVG 1.1//EN" "http://www.w3.org/Graphics/SVG/1.1/DTD/svg11.dtd"><svg t="1673144696701" class="icon" viewBox="0 0 1024 1024" version="1.1" xmlns="http://www.w3.org/2000/svg" p-id="3018" xmlns:xlink="http://www.w3.org/1999/xlink" width="200" height="200"><path d="M912.9 347.8c-21.9-50.2-53.3-95.3-93.2-134-39.9-38.6-86.3-68.9-137.9-90.1-53.4-21.9-110.1-33-168.6-33-58.4 0-115.1 11.1-168.6 33-51.6 21.2-98 51.5-137.9 90.1-39.9 38.7-71.3 83.7-93.2 134-22.7 52.1-34.3 107.4-34.3 164.4 0 29.5 3.2 59.1 9.4 87.8l4.1 19 18.3 6.5c86.2 30.6 175.8 51.4 266.7 61.7L363 857.6c-1.4 15.6 3.9 31.1 14.5 42.7s25.6 18.1 41.3 18.1h209.6c16.2 0 31.6-7 42.3-19.3 10.6-12.3 15.4-28.5 13.1-44.6l-24-168.7c86.9-10.7 172.9-31 255.4-60.4l18.3-6.5 4.1-19c6.3-28.7 9.4-58.2 9.4-87.8 0.2-56.9-11.4-112.2-34.1-164.3zM434.1 848.4l13.5-155.2c15.3 1 30 1.4 51.8 1.7 32.6 0.4 52.9 0.1 73.9-1.4 5.6-0.3 11.3-0.6 16.9-1l22.2 156H434.1z m438.8-282.3c-72.3 24.3-147.2 41.2-222.9 50.5l-0.3-2-34 4.1c-19.1 2.3-33.1 3.9-47 4.9-22.9 1.1-45.8 1.6-68.6 1.3-17.7-0.2-35.4-0.8-53.1-1.9-8.2-0.6-16.9-1.4-27.8-2.5l-35.3-3.6-0.1 0.6c-78.3-9-155.6-26.3-230.3-51.4-2.8-17.8-4.2-35.8-4.2-53.9 0-193.8 163.3-351.4 364-351.4s364 157.6 364 351.4c-0.1 18.1-1.6 36.1-4.4 53.9z" p-id="3019"></path><path d="M425.9 244.3c-4.6-13.2-19.8-19.3-32.2-12.9-20.3 10.5-50.4 29.2-78.9 59.1-28.3 29.7-49.2 64.3-62.2 103-13.8 41-18.6 86.4-14.3 135.2 1.2 13.1 13.1 22.6 26.2 20.7l4-0.6c12.1-1.8 20.6-12.6 19.6-24.8-7.1-79.9 13.6-146.3 61.6-197.6 24-25.7 49.9-41.8 66.6-50.4 10.1-5.3 14.8-17.2 11-28l-1.4-3.7z" p-id="3020"></path></svg>